<svg aria-hidden="true" style="position: absolute; width: 0; height: 0; overflow: hidden;" version="1.1" xmlns="http://www.w3.org/2000/svg" xmlns:xlink="http://www.w3.org/1999/xlink">
<defs>


<symbol id="icon-menu-mobile" viewBox="0 0 46 32">
<path    stroke-linejoin="miter" stroke-linecap="butt" stroke-miterlimit="4" stroke-width="2.2857" d="M0 2.286h45.714"></path>
<path    stroke-linejoin="miter" stroke-linecap="butt" stroke-miterlimit="4" stroke-width="2.2857" d="M0 16h45.714"></path>
<path    stroke-linejoin="miter" stroke-linecap="butt" stroke-miterlimit="4" stroke-width="2.2857" d="M0 29.714h45.714"></path>
</symbol>

<symbol id="icon-mob-menu-close-btn" viewBox="0 0 32 32">
<path fill="none"   stroke-linejoin="miter" stroke-linecap="butt" stroke-miterlimit="4" stroke-width="2" d="M2.518 2l26.963 28"></path>
<path fill="none"   stroke-linejoin="miter" stroke-linecap="butt" stroke-miterlimit="4" stroke-width="2" d="M2 29.481l28-26.963"></path>
</symbol>

<symbol id="icon-btn" viewBox="0 0 26 32">
<path fill="none" stroke-linejoin="round" stroke-linecap="round" stroke-miterlimit="4" stroke-width="6.4" d="M3.542 3.2l16.825 12.8-16.825 12.8"></path>
</symbol>

<!--advantages section icon  -->
<!-- advantages icon # 1 -->
<symbol id="icon-Group-5-1" viewBox="0 0 21 32">
<path fill="#ffa5ba" style="fill: var(--color1, #ffa5ba)" d="M2.336 0.141c-0.352 0.192-0.557 0.563-0.557 1.011 0.006 0.813 0.211 1.555 0.614 2.195l0.179 0.294-0.339 0.384c-0.384 0.422-0.474 0.576-0.64 1.088-0.073 0.256-0.116 0.55-0.116 0.853 0 0.258 0.030 0.509 0.088 0.749l-0.004-0.022c0.32 1.152 1.36 1.983 2.594 1.983 0.719 0 1.373-0.283 1.855-0.743l-0.001 0.001 0.378-0.314 0.346 0.179c0.183 0.092 0.427 0.2 0.677 0.298l0.065 0.022 0.384 0.141v0.704c0 1.101 0.224 1.76 0.813 2.355 0.576 0.589 1.498 0.896 2.285 0.762 0.586-0.105 1.096-0.379 1.492-0.768l-0 0c0.589-0.589 0.813-1.248 0.813-2.355v-0.698l0.384-0.134c0.211-0.083 0.544-0.23 0.742-0.326l0.346-0.179 0.378 0.32c0.481 0.459 1.135 0.742 1.854 0.742 1.234 0 2.274-0.831 2.59-1.964l0.005-0.019c0.056-0.223 0.088-0.48 0.088-0.744 0-0.3-0.041-0.591-0.119-0.866l0.005 0.023c-0.123-0.429-0.348-0.796-0.646-1.088l-0-0-0.339-0.384 0.179-0.294c0.403-0.64 0.608-1.382 0.614-2.195 0-0.448-0.205-0.819-0.557-1.011l-0.256-0.141h-15.936l-0.262 0.141zM17.069 2.099c0 0.019-0.179 0.314-0.397 0.666-0.653 1.024-0.627 1.254 0.237 2.17 0.314 0.326 0.602 0.659 0.64 0.736 0.237 0.461-0.23 1.037-0.742 0.915-0.309-0.163-0.57-0.373-0.784-0.624l-0.003-0.004c-0.787-0.774-1.056-0.864-1.664-0.518-0.571 0.342-1.233 0.653-1.925 0.898l-0.078 0.024c-0.608 0.173-0.813 0.307-0.973 0.64-0.128 0.256-0.141 0.358-0.141 1.363 0 1.229-0.051 1.427-0.403 1.6-0.256 0.128-0.301 0.128-0.55 0-0.352-0.173-0.403-0.371-0.403-1.6 0-1.005-0.006-1.107-0.128-1.363-0.173-0.326-0.384-0.467-0.986-0.64-0.531-0.147-1.306-0.493-1.741-0.774-0.403-0.262-0.762-0.365-1.043-0.314-0.179 0.038-0.365 0.186-0.858 0.666-0.403 0.39-0.691 0.621-0.819 0.646-0.512 0.122-0.973-0.461-0.742-0.915 0.045-0.077 0.333-0.41 0.646-0.736 0.864-0.915 0.896-1.139 0.237-2.176-0.218-0.346-0.397-0.64-0.397-0.659 0-0.026 2.931-0.038 6.509-0.038 3.584 0 6.509 0.013 6.509 0.038zM0.486 13.203c-0.32 0.218-0.486 0.512-0.486 0.845 0 0.224 3.117 16.928 3.232 17.28 0.051 0.192 0.282 0.422 0.518 0.544 0.23 0.128 0.384 0.128 6.81 0.128 6.419 0 6.579 0 6.81-0.128 0.237-0.128 0.467-0.352 0.518-0.544 0.115-0.352 3.232-17.056 3.232-17.28 0-0.326-0.173-0.627-0.486-0.845l-0.205-0.141h-19.738l-0.205 0.141zM18.688 15.488c-0.064 0.499-0.416 1.587-0.678 2.080-1.28 2.374-3.712 3.821-6.733 3.987-2.278 0.128-4.205-0.333-5.824-1.395-0.935-0.625-1.694-1.441-2.235-2.397l-0.018-0.035c-0.341-0.647-0.61-1.397-0.766-2.187l-0.009-0.053-0.045-0.358h16.358l-0.045 0.358zM4.39 21.92c2.63 1.773 6.566 2.24 9.882 1.165 1.217-0.404 2.273-0.976 3.205-1.701l-0.024 0.018c0.275-0.218 0.294-0.218 0.269-0.083l-0.806 4.243-0.8 4.23-0.032 0.147h-11.046l-0.032-0.147-0.8-4.224-0.806-4.25c-0.026-0.134-0.006-0.134 0.269 0.083 0.16 0.128 0.486 0.352 0.723 0.512z"></path>
</symbol>

<!-- advantages icon # 2 -->
<symbol id="icon-apples-svgrepo-com-1-1" viewBox="0 0 32 32">
<path fill="#ffa5ba" style="fill: var(--color1, #ffa5ba)" d="M29.626 21.411c-1.292-0.458-2.381-0.344-3.242 0.018 0.145-0.877 0.47-1.832 1.169-2.481 0.214-0.195 0.348-0.476 0.348-0.787 0-0.588-0.477-1.065-1.065-1.065-0.283 0-0.541 0.111-0.731 0.291l0-0c-1.229 1.14-1.706 2.749-1.874 4.081-0.307-0.142-0.662-0.25-1.035-0.308l-0.023-0.003 1.89-9.83c0.012-0.061 0.019-0.13 0.019-0.202 0-0.588-0.477-1.064-1.064-1.064-0 0-0 0-0 0h-0.205c0.094-0.5 0.141-0.997 0.138-1.47-0.016-1.994-0.903-3.495-2.374-4.017-1.409-0.5-2.589-0.35-3.507 0.066 0.146-0.976 0.495-2.063 1.282-2.794 0.214-0.195 0.348-0.476 0.348-0.787 0-0.588-0.477-1.065-1.065-1.065-0.283 0-0.541 0.111-0.731 0.291l0-0c-1.32 1.226-1.815 2.966-1.981 4.387-0.735-0.348-1.644-0.526-2.709-0.33-1.094-1.571-2.612-2.295-4.090-1.941-1.451 0.348-2.358 1.115-2.9 1.962-0.41-0.899-0.712-2.001-0.452-3.036 0.018-0.073 0.028-0.157 0.028-0.244 0-0.588-0.477-1.065-1.065-1.065-0.49 0-0.903 0.331-1.027 0.781l-0.002 0.007c-0.439 1.746 0.095 3.475 0.73 4.758-1.016 0.138-2.118 0.65-3.049 1.866-0.578 0.755-0.773 1.698-0.596 2.7-0.408 0.155-0.692 0.543-0.692 0.997 0 0.071 0.007 0.14 0.020 0.207l-0.001-0.007 3.809 19.809c0.096 0.502 0.535 0.864 1.046 0.864h15.237c0.51 0 0.949-0.362 1.046-0.864l0.037-0.195c0.287 0.198 0.595 0.364 0.927 0.486 1.267 0.472 2.447 0.278 3.044 0.118 0.316 0.084 0.795 0.179 1.364 0.179 0.506 0 1.084-0.075 1.68-0.297 2.36-0.879 3.615-3.839 3.596-6.178-0.015-1.904-0.865-3.34-2.275-3.839zM22.675 12.191c-0.491 4.705-4.452 7.909-9.971 7.909s-9.481-3.204-9.971-7.909h19.942zM16.032 7.515c0.184 0.349 0.536 0.567 0.931 0.567s0.746-0.218 0.931-0.567c0.203-0.312 0.46-0.572 0.76-0.771l0.010-0.006c0.629-0.408 1.35-0.46 2.203-0.157 0.851 0.301 0.952 1.518 0.956 2.027 0.004 0.463-0.064 0.961-0.19 1.453h-7.126c0.236-1.19 0.094-2.492-0.289-3.669 0.392 0.022 0.751 0.149 1.055 0.351l-0.008-0.005c0.31 0.205 0.567 0.465 0.763 0.767l0.006 0.010zM3.077 8.724c0.55-0.719 1.183-1.069 1.933-1.069h0.002c0.57 0 1.016 0.207 1.066 0.232 0.341 0.189 0.749 0.172 1.078-0.037 0.332-0.211 0.51-0.592 0.481-0.983-0.006-0.077-0.115-1.894 1.983-2.397 0.877-0.211 1.626 0.754 1.906 1.178 0.808 1.221 1.222 3.108 0.777 4.413h-9.348c-0.141-0.443-0.179-0.943 0.122-1.336zM5.852 29.87l-2.111-10.977c0.138 0.132 0.28 0.262 0.428 0.388 2.208 1.901 5.239 2.948 8.535 2.948s6.328-1.047 8.535-2.948c0.051-0.044 0.102-0.090 0.152-0.134l-0.431 2.243c-0.020 0.006-0.040 0.013-0.061 0.020-1.411 0.5-2.261 1.935-2.276 3.839-0.010 1.165 0.297 2.483 0.898 3.622l-0.192 0.998h-13.477zM27.562 29.432c-0.943 0.351-1.881 0.017-1.916 0.004-0.114-0.046-0.246-0.073-0.384-0.073s-0.27 0.027-0.391 0.076l0.007-0.003c-0.010 0.004-0.96 0.352-1.917-0.004-1.338-0.499-2.223-2.556-2.21-4.166 0.004-0.465 0.095-1.578 0.858-1.849 0.279-0.107 0.601-0.17 0.937-0.175l0.002-0c1.107 0 1.658 0.812 1.782 1.024 0.184 0.35 0.535 0.57 0.931 0.57s0.748-0.22 0.931-0.57c0.156-0.265 0.977-1.468 2.721-0.849 0.763 0.271 0.854 1.383 0.858 1.85 0.013 1.609-0.872 3.667-2.21 4.165z"></path>
</symbol>

<!-- advantages icon # 3 -->
<symbol id="icon-Group-4-1" viewBox="0 0 28 32">
<path fill="#ffa5ba" style="fill: var(--color1, #ffa5ba)" d="M6.507 0.682c-2.81 0.589-4.991 2.897-5.702 6.037-0.261 1.097-0.249 3.209 0.012 4.409 0.581 2.666 1.873 5.032 3.912 7.087 1.826 1.847 3.426 2.966 5.963 4.132l1.328 0.623v8.414h1.423v-7.953l0.356 0.104c0.202 0.058 0.51 0.058 0.711 0l0.356-0.104v7.953h1.423v-8.426l1.268-0.577c2.454-1.131 4.232-2.355 5.963-4.109 2.762-2.805 4.173-5.99 4.173-9.453 0.012-3.797-1.98-6.879-5.109-7.93-0.664-0.231-1.008-0.265-2.264-0.254-1.316 0.012-1.612 0.058-2.608 0.369-1.174 0.381-2.324 0.981-3.082 1.604l-0.439 0.369-0.64-0.473c-1.648-1.212-3.331-1.801-5.311-1.881-0.688-0.023-1.47 0-1.731 0.058zM9.21 2.113c0.498 0.092 1.174 0.289 1.529 0.427 0.759 0.312 2.027 1.108 2.525 1.581 0.771 0.727 0.984 0.716 1.861-0.069 1.375-1.247 3.592-2.101 5.418-2.101 2.478 0 4.742 1.939 5.465 4.675 0.13 0.485 0.249 1.27 0.261 1.743 0.047 1.039 0.012 1.073-1.6 1.685-1.304 0.496-2.395 0.739-4.268 0.946-1.197 0.139-1.446 0.208-1.814 0.473-0.759 0.566-0.877 0.981-0.877 3.336 0 1.766-0.024 2.101-0.202 2.285-0.249 0.277-0.688 0.265-0.984-0.023-0.225-0.219-0.237-0.381-0.237-2.712 0-2.585-0.071-3.024-0.557-3.543-0.107-0.115-0.948-0.566-1.861-1.016-1.031-0.485-2.063-1.085-2.679-1.558-2.976-2.228-4.292-2.863-6.734-3.243-0.699-0.115-1.292-0.219-1.316-0.231-0.107-0.081 0.533-0.9 1.114-1.408 1.375-1.224 2.94-1.616 4.955-1.247zM5.286 6.569c1.209 0.3 2.573 0.981 3.817 1.904 0.522 0.381 1.186 0.866 1.482 1.085 0.794 0.589 2.11 1.327 3.106 1.743 0.486 0.208 0.948 0.45 1.031 0.554 0.107 0.127 0.142 0.854 0.142 2.666 0 2.181 0.036 2.551 0.225 2.955 0.391 0.831 1.020 1.212 1.98 1.212 0.616 0 1.043-0.185 1.494-0.658 0.51-0.519 0.569-0.843 0.569-3.047 0-2.505-0.024-2.459 1.375-2.574 1.423-0.127 3.189-0.508 4.363-0.935 0.593-0.219 1.103-0.369 1.126-0.335 0.13 0.127-0.759 2.389-1.28 3.266-0.83 1.42-1.482 2.228-2.739 3.405-1.826 1.708-4.339 3.174-6.9 4.051l-0.925 0.323-0.913-0.323c-2.739-0.923-5.157-2.389-7.101-4.271-2.466-2.366-3.758-4.871-4.078-7.837-0.119-1.108 0.059-3.013 0.332-3.463 0.095-0.162 1.79 0.012 2.893 0.277z"></path>
<path fill="none" stroke="#ffa5ba" style="stroke: var(--color1, #ffa5ba)" stroke-linejoin="miter" stroke-linecap="butt" stroke-miterlimit="4" stroke-width="0.6154" d="M6.507 0.682c-2.81 0.589-4.991 2.897-5.702 6.037-0.261 1.097-0.249 3.209 0.012 4.409 0.581 2.666 1.873 5.032 3.912 7.087 1.826 1.847 3.426 2.966 5.963 4.132l1.328 0.623v8.414h1.423v-7.953l0.356 0.104c0.202 0.058 0.51 0.058 0.711 0l0.356-0.104v7.953h1.423v-8.426l1.268-0.577c2.454-1.131 4.232-2.355 5.963-4.109 2.762-2.805 4.173-5.99 4.173-9.453 0.012-3.797-1.98-6.879-5.109-7.93-0.664-0.231-1.008-0.265-2.264-0.254-1.316 0.012-1.612 0.058-2.608 0.369-1.174 0.381-2.324 0.981-3.082 1.604l-0.439 0.369-0.64-0.473c-1.648-1.212-3.331-1.801-5.311-1.881-0.688-0.023-1.47 0-1.731 0.058zM9.21 2.113c0.498 0.092 1.174 0.289 1.529 0.427 0.759 0.312 2.027 1.108 2.525 1.581 0.771 0.727 0.984 0.716 1.861-0.069 1.375-1.247 3.592-2.101 5.418-2.101 2.478 0 4.742 1.939 5.465 4.675 0.13 0.485 0.249 1.27 0.261 1.743 0.047 1.039 0.012 1.073-1.6 1.685-1.304 0.496-2.395 0.739-4.268 0.946-1.197 0.139-1.446 0.208-1.814 0.473-0.759 0.566-0.877 0.981-0.877 3.336 0 1.766-0.024 2.101-0.202 2.285-0.249 0.277-0.688 0.265-0.984-0.023-0.225-0.219-0.237-0.381-0.237-2.712 0-2.585-0.071-3.024-0.557-3.543-0.107-0.115-0.948-0.566-1.861-1.016-1.031-0.485-2.063-1.085-2.679-1.558-2.976-2.228-4.292-2.863-6.734-3.243-0.699-0.115-1.292-0.219-1.316-0.231-0.107-0.081 0.533-0.9 1.114-1.408 1.375-1.224 2.94-1.616 4.955-1.247zM5.286 6.569c1.209 0.3 2.573 0.981 3.817 1.904 0.522 0.381 1.186 0.866 1.482 1.085 0.794 0.589 2.11 1.327 3.106 1.743 0.486 0.208 0.948 0.45 1.031 0.554 0.107 0.127 0.142 0.854 0.142 2.666 0 2.181 0.036 2.551 0.225 2.955 0.391 0.831 1.020 1.212 1.98 1.212 0.616 0 1.043-0.185 1.494-0.658 0.51-0.519 0.569-0.843 0.569-3.047 0-2.505-0.024-2.459 1.375-2.574 1.423-0.127 3.189-0.508 4.363-0.935 0.593-0.219 1.103-0.369 1.126-0.335 0.13 0.127-0.759 2.389-1.28 3.266-0.83 1.42-1.482 2.228-2.739 3.405-1.826 1.708-4.339 3.174-6.9 4.051l-0.925 0.323-0.913-0.323c-2.739-0.923-5.157-2.389-7.101-4.271-2.466-2.366-3.758-4.871-4.078-7.837-0.119-1.108 0.059-3.013 0.332-3.463 0.095-0.162 1.79 0.012 2.893 0.277z"></path>

<!-- footer icon # 3 -->
<symbol id="icon-telegram" viewBox="0 0 40 32">
<path fill="#fff" style="fill: var(--color1, #fff)" d="M16.205 20.751l-0.635 8.339c0.909 0 1.302-0.364 1.774-0.802l4.261-3.801 8.829 6.035c1.619 0.842 2.76 0.399 3.197-1.39l5.797-25.346c0.514-2.234-0.866-3.108-2.443-2.56l-34.065 12.172c-2.325 0.842-2.29 2.052-0.395 2.6l8.709 2.528 20.229-11.814c0.952-0.588 1.818-0.263 1.106 0.326l-16.364 13.713z"></path>
</symbol>

<!-- footer icon # 3 -->
<symbol id="icon-facebook" viewBox="0 0 16 32">
<path fill="#fff" style="fill: var(--color1, #fff)" d="M14.266 15.97h-4.176v15.39h-6.327v-15.39h-3.009v-5.409h3.009v-3.5c0-2.503 1.182-6.422 6.384-6.422l4.687 0.020v5.25h-3.401c-0.558 0-1.342 0.28-1.342 1.474v3.183h4.729l-0.553 5.403z"></path>
</symbol>

<!-- footer icon # 3 -->
<symbol id="icon-github" viewBox="0 0 32 32">
<path fill="#fff" style="fill: var(--color1, #fff)" d="M16 0.941c-8.271 0-15.059 6.788-15.059 15.059 0 7.058 4.953 13.47 11.529 15.059v-4.982c-0.652 0.143-1.251 0.147-1.915-0.049-0.89-0.263-1.613-0.855-2.15-1.759-0.342-0.577-0.949-1.203-1.581-1.157l-0.155-1.758c1.368-0.117 2.551 0.833 3.254 2.014 0.312 0.525 0.671 0.832 1.132 0.968 0.446 0.131 0.924 0.068 1.481-0.129 0.14-1.116 0.651-1.534 1.037-2.122v-0.001c-3.922-0.585-5.486-2.666-6.106-4.308-0.822-2.181-0.381-4.905 1.073-6.627 0.028-0.034 0.079-0.121 0.059-0.183-0.667-2.014 0.146-3.679 0.176-3.856 0.769 0.228 0.894-0.229 3.342 1.258l0.423 0.254c0.177 0.105 0.121 0.045 0.298 0.032 1.022-0.278 2.099-0.431 3.16-0.445 1.069 0.014 2.14 0.167 3.204 0.456l0.137 0.014c-0.012-0.002 0.037-0.009 0.12-0.058 3.057-1.852 2.947-1.247 3.767-1.513 0.030 0.177 0.831 1.87 0.172 3.858-0.089 0.274 2.65 2.782 1.132 6.809-0.62 1.643-2.183 3.724-6.106 4.309v0.001c0.503 0.766 1.107 1.174 1.104 2.755v6.219c6.577-1.589 11.529-8.001 11.529-15.059 0-8.271-6.787-15.059-15.059-15.059v0z"></path>
</symbol>

<symbol id="icon-close_for_btn" viewBox="0 0 32 32">
<path d="M23.733 10.304l-1.504-1.504-5.963 5.963-5.963-5.963-1.504 1.504 5.963 5.963-5.963 5.963 1.504 1.504 5.963-5.963 5.963 5.963 1.504-1.504-5.963-5.963 5.963-5.963z"></path>
</symbol>

<symbol id="icon-icon-check" viewBox="0 0 34 32">
<path d="M4.267 0h25.6c2.356 0 4.267 1.91 4.267 4.267v23.467c0 2.356-1.91 4.267-4.267 4.267h-25.6c-2.356 0-4.267-1.91-4.267-4.267v-23.467c0-2.356 1.91-4.267 4.267-4.267z"></path>
<path fill="#fff" style="fill: var(--color2, #fff); stroke: var(--color2, #fff)" stroke="#fff" stroke-linejoin="miter" stroke-linecap="butt" stroke-miterlimit="4" stroke-width="0.4267" d="M8.442 16.537l-0.147-0.14-2.205 2.088 7.767 7.41 16.318-15.567-2.19-2.089-14.128 13.465-5.416-5.167z"></path>
</symbol>

</defs>
</svg>
